HIERARCHY
ROOT pelvis
{
  OFFSET 0 100 0
  CHANNELS 6 Xposition Yposition Zposition Zrotation Xrotation Yrotation
  JOINT pelvis_right_femur
  {
    OFFSET -10.78128 -3.44521 -0.5502486
    CHANNELS 3 Zrotation Xrotation Yrotation
    JOINT right_femur_tibia
    {
      OFFSET -0.8047443 -44.0398 -0.1307829
      CHANNELS 3 Zrotation Xrotation Yrotation
      JOINT right_tibia_foot
      {
        OFFSET 3.006224 -47.83518 -5
        CHANNELS 3 Zrotation Xrotation Yrotation
        End Site
        {
          OFFSET 0 -5 15
        }
      }
    }
  }
  JOINT pelvis_left_femur
  {
    OFFSET 10.78128 -3.44521 -0.5502486
    CHANNELS 3 Zrotation Xrotation Yrotation
    JOINT left_femur_tibia
    {
      OFFSET 0.8047443 -44.0398 -0.1307829
      CHANNELS 3 Zrotation Xrotation Yrotation
      JOINT left_tibia_foot
      {
        OFFSET -4.370144 -48.10324 -4.275266
        CHANNELS 3 Zrotation Xrotation Yrotation
        End Site
        {
          OFFSET 0 -5 15
        }
      }
    }
  }
  JOINT pelvis_spine1
  {
    OFFSET 0 6.468898 -3.129235
    CHANNELS 3 Zrotation Xrotation Yrotation
    JOINT spine1
    {
      OFFSET 0 23.15396 4.99043
      CHANNELS 3 Zrotation Xrotation Yrotation
      JOINT spine2
      {
        OFFSET 0 20.79997 -5.064912
        CHANNELS 3 Zrotation Xrotation Yrotation
        JOINT neck
        {
          OFFSET 0 14.38658 9.616178
          CHANNELS 3 Zrotation Xrotation Yrotation
          End Site
          {
            OFFSET 0 20 0
          }
        }
      }
      JOINT right_manubrium
      {
        OFFSET -5.722621 16.35077 3.967754
        CHANNELS 3 Zrotation Xrotation Yrotation
        JOINT right_clavicle
        {
          OFFSET -13.16364 1.694482 -4.693211
          CHANNELS 3 Zrotation Xrotation Yrotation
          JOINT right_humerus
          {
            OFFSET -28.5034 -0.3100689 -2.792744
            CHANNELS 3 Zrotation Xrotation Yrotation
            JOINT right_radius
            {
              OFFSET -25.15693 0.02248979 -1.271978
              CHANNELS 3 Zrotation Xrotation Yrotation
              End Site
              {
                OFFSET -15 0 0
              }
            }
          }
        }
      }
      JOINT left_manubrium
      {
        OFFSET 5.722621 16.35077 3.967754
        CHANNELS 3 Zrotation Xrotation Yrotation
        JOINT left_clavicle
        {
          OFFSET 13.16364 1.694482 -4.693211
          CHANNELS 3 Zrotation Xrotation Yrotation
          JOINT left_humerus
          {
            OFFSET 29.39168 -1.063119 -2.237045
            CHANNELS 3 Zrotation Xrotation Yrotation
            JOINT left_radius
            {
              OFFSET 24.59957 -0.9528479 0.9047498
              CHANNELS 3 Zrotation Xrotation Yrotation
              End Site
              {
                OFFSET 15 -0 -0
              }
            }
          }
        }
      }
    }
  }
}
MOTION
Frames: 19
Frame Time: 0.0416666666667
1418.969 107.6945 2492.63 6.077269 -3.432492 53.73268 3.51992 14.6616 4.820958 -0 14.86979 -0 0.02769965 -16.53184 -2.336756 1.562322 -24.61021 -3.04625 -0 25.95735 -0 -7.057607 -7.43706 19.37016 -0.8407794 1.664221 7.589716 -0.7324597 8.878004 -2.720213 2.100928 22.96319 4.483375 1.677777 -15.98219 6.308405 0.680803 -20.57702 10.9609 80.60823 23.77718 -5.468777 -0 0 22.84125 -22.0558 9.481456 13.05617 4.687509 -15.60166 -2.376412 -92.08718 23.89581 21.72832 0 0 -12.84475 -1.420416 6.367297 14.78878
1424.652 106.6766 2495.857 5.466584 -3.107622 53.23025 2.788891 16.87904 4.503275 -0 17.13935 -0 0.5265681 -16.97511 -1.534002 1.363992 -25.47747 -3.385216 -0 20.68634 -0 -6.696818 -7.238844 19.23877 -0.9386915 1.069287 7.735642 -0.8877731 8.541442 -2.658414 1.967486 22.72715 4.640816 1.686345 -16.28117 6.352299 0.6275735 -21.04545 10.74759 79.96915 23.8733 -4.478259 -0 0 23.9192 -22.80049 9.258417 13.75452 4.513654 -15.09746 -2.221385 -92.51656 23.91828 23.01059 0 0 -11.47796 -1.701104 6.373243 15.20999
1430.648 105.8921 2499.154 5.213947 -2.70214 52.83682 1.807055 18.17024 4.346189 -0 21.17729 -0 1.0162 -15.70522 -1.088484 0.4291625 -25.06823 -4.142771 -0 18.45104 -0 -6.123338 -7.283072 19.00396 -1.362608 0.3863696 7.951854 -1.000881 8.45699 -2.703148 1.928301 22.51232 4.766513 1.808296 -16.63404 6.386136 0.8484182 -21.13398 10.60667 79.77917 24.08462 -4.274196 -0 0 24.14577 -23.45947 9.200032 14.20983 4.244111 -14.80646 -2.179257 -92.69609 23.87995 23.86855 0 0 -10.30216 -1.858167 6.383006 15.52684
1436.897 105.5444 2502.513 5.39065 -2.32338 52.65559 0.7397628 18.18926 4.320924 -0 27.15977 -0 1.389286 -12.72174 -1.155748 -1.033702 -23.41438 -5.170122 -0 18.72546 -0 -5.35086 -7.677136 18.7608 -2.044498 -0.2147621 8.084062 -1.100862 8.619568 -2.817199 1.980456 22.38303 4.85651 1.983816 -16.93603 6.439278 1.240744 -20.83245 10.54086 80.1157 24.36368 -4.759018 -0 0 23.54028 -23.9415 9.258177 14.38123 3.916747 -14.69513 -2.282408 -92.56081 23.80698 24.17057 0 0 -9.393968 -1.883566 6.38257 15.72276
1443.255 105.7467 2505.888 5.930954 -2.081705 52.79814 -0.1886415 16.68769 4.33481 -0 34.72811 -0 1.610873 -8.598526 -1.766663 -2.69247 -20.56697 -6.294798 -0 20.31708 -0 -4.492298 -8.415099 18.54736 -2.821943 -0.5829461 7.951131 -1.183086 8.950909 -2.998982 2.07641 22.3816 4.93687 2.133781 -17.10075 6.540062 1.69358 -20.2029 10.53059 80.95432 24.68599 -5.766155 -0 0 22.25242 -24.13598 9.37337 14.28728 3.571782 -14.71554 -2.541943 -92.07628 23.78666 23.83929 0 0 -8.879379 -1.851421 6.35928 15.86845
1449.523 106.4856 2509.192 6.658035 -2.029466 53.33585 -0.7975445 13.58951 4.281857 -0 42.87793 -0 1.680386 -4.329358 -2.812776 -4.211346 -16.63787 -7.373874 -0 21.84029 -0 -3.704366 -9.428348 18.32774 -3.507375 -0.6322646 7.427715 -1.208477 9.318556 -3.283368 2.144593 22.52136 5.050142 2.195788 -17.08056 6.699538 2.126269 -19.34766 10.54182 82.15564 25.08049 -7.122483 -0 0 20.50062 -23.94592 9.496999 13.98518 3.252673 -14.84711 -2.936385 -91.22922 23.94867 22.82703 0 0 -8.95686 -1.874165 6.322177 16.06758
1455.493 107.6109 2512.321 7.336194 -2.131425 54.25598 -1.02631 9.029884 4.093884 -0 50.07888 -0 1.566874 -0.9752624 -4.076738 -5.345841 -11.84781 -8.314594 -0 22.20733 -0 -3.116994 -10.64756 18.01081 -3.958054 -0.3832911 6.507239 -1.118034 9.592075 -3.732621 2.113715 22.77232 5.239044 2.158512 -16.89409 6.898299 2.51041 -18.38471 10.54573 83.5056 25.62945 -8.717713 -0 0 18.51128 -23.3465 9.620058 13.54809 3.012393 -15.13416 -3.416287 -90.0276 24.39095 21.12399 0 0 -9.852638 -2.023346 6.318536 16.36499
1461.012 108.865 2515.189 7.7331 -2.281764 55.45018 -0.9423247 3.3613 3.75734 -0 54.64451 -0 1.213226 0.7350459 -5.294252 -5.991314 -6.56207 -9.066793 -0 20.95285 -0 -2.7819 -12.03874 17.50306 -4.122663 0.03333649 5.324651 -0.8593762 9.703355 -4.406895 1.938613 23.04979 5.528302 2.072251 -16.64243 7.088368 2.862069 -17.44111 10.5358 84.78958 26.41497 -10.52698 -0 0 16.49531 -22.43042 9.787882 13.05228 2.917354 -15.67732 -3.915974 -88.52925 25.08711 18.81449 0 0 -11.70225 -2.265459 6.415145 16.67997
1466.039 109.9509 2517.778 7.69075 -2.355739 56.75034 -0.6950685 -2.88521 3.29242 -0 55.27789 -0 0.6205584 0.6761252 -6.253065 -6.186612 -1.26591 -9.598857 -0 18.30254 -0 -2.667093 -13.59859 16.76881 -4.050659 0.4342746 4.120288 -0.4184067 9.666503 -5.314911 1.627863 23.23352 5.9053 2.021008 -16.47936 7.218407 3.197917 -16.63744 10.52269 85.87051 27.4271 -12.55947 -0 0 14.63834 -21.40138 10.07164 12.56709 3.040626 -16.56529 -4.362626 -86.86571 25.84586 16.1109 0 0 -14.42123 -2.449576 6.646939 16.80803
1470.654 110.6109 2520.143 7.197329 -2.268559 57.99392 -0.4557408 -9.105611 2.721284 -0 51.59606 -0 -0.08750404 -0.6639981 -6.882293 -6.078556 3.562124 -9.87669 -0 14.998 -0 -2.700496 -15.3172 15.85937 -3.858355 0.6785255 3.141393 0.1589126 9.542877 -6.373354 1.260216 23.22832 6.307845 2.065776 -16.52589 7.270609 3.479207 -16.04124 10.50688 86.73502 28.49212 -14.77244 -0 0 13.06303 -20.5029 10.49988 12.1376 3.436329 -17.7872 -4.687427 -85.20954 26.37781 13.28739 0 0 -17.6741 -2.36807 6.97596 16.50986
1475.035 110.6865 2522.404 6.415327 -2.010882 59.07673 -0.3597245 -14.76496 2.061505 -0 44.3443 -0 -0.7142128 -2.458404 -7.262022 -5.85412 7.631636 -9.87705 -0 11.976 -0 -2.828517 -17.12862 14.89232 -3.666295 0.730189 2.52714 0.7732365 9.384155 -7.414971 0.9656848 23.02869 6.633764 2.198501 -16.78325 7.275602 3.599383 -15.62321 10.45902 87.47261 29.29481 -17.02831 -0 0 11.78067 -19.90804 11.00707 11.76261 4.097627 -19.19376 -4.849793 -83.69729 26.45475 10.55421 0 0 -20.99453 -1.886512 7.30646 15.66887
1479.396 110.1422 2524.703 5.614099 -1.641879 59.96526 -0.4479196 -19.49553 1.358534 -0 35.13247 -0 -1.105889 -3.94023 -7.555059 -5.661556 10.92977 -9.635776 -0 10.05283 -0 -3.041397 -18.87863 13.99796 -3.546122 0.6409692 2.259084 1.311956 9.204011 -8.252953 0.8672159 22.72415 6.777193 2.346983 -17.13175 7.283944 3.450272 -15.27593 10.33919 88.19427 29.52015 -19.13086 -0 0 10.69861 -19.63281 11.46031 11.38912 4.92442 -20.54053 -4.865096 -82.39258 26.05732 8.019786 0 0 -23.96734 -1.068612 7.551465 14.42311
1483.932 109.0653 2527.177 5.025075 -1.252543 60.6801 -0.6212288 -23.11704 0.7256697 -0 25.86121 -0 -1.220085 -4.659026 -7.910472 -5.55531 13.62689 -9.26811 -0 9.734829 -0 -3.36145 -20.33161 13.26144 -3.501474 0.4871539 2.206725 1.701267 8.995706 -8.761416 1.016979 22.43022 6.676478 2.427669 -17.432 7.320537 3.023944 -14.89099 10.14432 88.95164 29.04019 -20.90035 -0 0 9.697542 -19.53743 11.75036 10.944 5.737256 -21.58274 -4.804087 -81.32612 25.3873 5.785839 0 0 -26.32174 -0.171337 7.690279 13.136
1488.783 107.6523 2529.928 4.719766 -0.9366534 61.2728 -0.647127 -25.60635 0.3462073 -0 18.1844 -0 -1.115041 -4.496934 -8.38534 -5.485071 15.88664 -8.913544 -0 11.19038 -0 -3.829158 -21.20573 12.6898 -3.472545 0.326917 2.212757 1.934984 8.768919 -8.923079 1.36895 22.2076 6.348205 2.401203 -17.63261 7.367158 2.459342 -14.42288 9.933209 89.7099 28.01471 -22.22773 -0 0 8.709263 -19.41532 11.8659 10.38605 6.344488 -22.16441 -4.749035 -80.54568 24.72544 4.030907 0 0 -27.90014 0.5243277 7.761462 12.18076
1494.022 106.1789 2533.011 4.6032 -0.7863918 61.79781 -0.2421862 -27.02124 0.4241721 -0 13.18309 -0 -0.9095511 -3.590988 -8.924373 -5.32826 17.73584 -8.64888 -0 14.35681 -0 -4.491508 -21.21031 12.23614 -3.353005 0.1920508 2.158428 2.061593 8.571549 -8.825077 1.800383 22.04114 5.887243 2.29086 -17.7799 7.381255 1.9885 -13.89357 9.798544 90.37423 26.83398 -23.08808 -0 0 7.733872 -19.10381 11.89372 9.732925 6.621629 -22.26689 -4.737961 -80.11491 24.24982 2.957678 0 0 -28.60778 0.9148838 7.806023 11.69798
1499.652 104.9491 2536.434 4.527014 -0.8910548 62.27528 0.7855707 -27.36483 1.0969 -0 11.21597 -0 -0.7446073 -2.304766 -9.400321 -4.960249 19.04058 -8.45036 -0 19.11329 -0 -5.37263 -20.09142 11.87803 -3.0268 0.08908296 2.002754 2.14199 8.483026 -8.610401 2.166413 21.88761 5.428912 2.160162 -17.93277 7.324857 1.820282 -13.36246 9.812106 90.84039 25.93454 -23.52536 -0 0 6.81323 -18.55956 11.95399 9.048575 6.547831 -22.00643 -4.748192 -80.07621 23.95728 2.664185 0 0 -28.43204 1.127174 7.830683 11.53391
1505.603 104.2299 2540.148 4.440922 -1.308981 62.65713 2.381543 -26.4558 2.331816 -0 11.8959 -0 -0.7321938 -1.223211 -9.676858 -4.342522 19.52308 -8.238228 -0 25.40503 -0 -6.440737 -17.73092 11.68822 -2.430434 0.003051715 1.81366 2.20778 8.584179 -8.402675 2.363995 21.74156 5.087923 2.072392 -18.07613 7.183793 2.034917 -12.91449 9.988566 91.03487 25.57539 -23.61416 -0 0 6.032852 -17.88044 12.11716 8.418592 6.184788 -21.5761 -4.731271 -80.43104 23.74055 3.094977 0 0 -27.48683 1.363281 7.822398 11.42381
1511.738 104.1876 2544.047 4.465777 -2.005937 62.8241 4.159945 -23.96594 3.857707 -0 14.18853 -0 -0.8861644 -1.019993 -9.656998 -3.585093 18.76747 -7.959205 -0 33.17608 -0 -7.596952 -14.32721 11.82405 -1.627097 -0.07859286 1.783753 2.245893 8.917627 -8.233095 2.379863 21.6599 4.904345 2.060457 -18.12132 6.973795 2.546289 -12.67642 10.28882 90.91633 25.69167 -23.40072 -0 0 5.574996 -17.27248 12.35414 7.938416 5.636851 -21.14885 -4.656439 -81.17244 23.53701 4.138116 0 0 -25.99168 1.670384 7.776031 11.26137
1517.869 104.8334 2547.966 4.807727 -2.802353 62.64159 5.527589 -19.72627 5.236935 -0 16.66833 -0 -1.089863 -2.083281 -9.301685 -2.92452 16.27788 -7.617745 -0 42.02243 -0 -8.669981 -10.55928 12.4197 -0.845749 -0.1226695 2.175474 2.214508 9.455032 -8.013209 2.293808 21.72263 4.831084 2.12459 -17.99586 6.73084 3.151288 -12.80716 10.65397 90.44458 25.94959 -22.84588 -0 0 5.723061 -16.96801 12.5552 7.711425 5.03305 -20.79831 -4.520963 -82.3246 23.39276 5.748777 0 0 -24.20387 1.863535 7.698203 11.1939
